<?xml version="1.0" standalone="no"?>
<!DOCTYPE svg PUBLIC "-//W3C//DTD SVG 20010904//EN"
 "http://www.w3.org/TR/2001/REC-SVG-20010904/DTD/svg10.dtd">
<svg version="1.0" xmlns="http://www.w3.org/2000/svg"
 width="100.000000pt" height="100.000000pt" viewBox="0 0 100.000000 100.000000"
 preserveAspectRatio="xMidYMid meet">

<g transform="translate(0.000000,100.000000) scale(0.100000,-0.100000)"
fill="#000000" stroke="none">
<path d="M0 945 c0 -48 3 -57 23 -65 l22 -9 -22 0 c-21 -1 -22 -5 -22 -106 0
-77 3 -104 11 -99 8 5 9 2 3 -12 -5 -10 -11 -50 -13 -87 -4 -67 -3 -68 17 -57
12 6 21 18 21 28 0 23 36 46 46 30 4 -7 8 -52 8 -101 1 -84 2 -90 29 -112 15
-13 27 -28 27 -34 0 -5 6 -16 14 -24 12 -12 11 -30 -5 -128 -26 -161 -26 -169
11 -169 30 0 30 1 30 54 0 96 20 260 38 303 16 39 18 41 52 36 19 -3 52 -11
73 -18 37 -13 77 -10 77 5 0 4 -7 11 -16 14 -28 11 -14 67 25 93 41 28 51 29
51 6 2 -67 124 -109 183 -63 14 11 27 20 30 20 12 0 16 -34 6 -46 -7 -9 -8
-14 -1 -14 13 0 3 -44 -38 -170 -32 -97 -66 -166 -94 -190 -22 -17 -20 -30 4
-30 22 0 32 16 56 86 9 27 38 96 66 154 68 145 91 214 93 290 2 75 -5 112 -24
118 -9 3 -11 0 -6 -7 4 -7 -15 -1 -41 12 -64 31 -90 37 -173 38 -76 1 -141
-22 -175 -60 -23 -25 -14 -41 11 -19 60 52 191 50 306 -4 77 -37 77 -37 77
-76 0 -21 -3 -42 -6 -45 -4 -4 -25 9 -46 29 -108 97 -233 106 -389 28 l-66
-33 4 47 c13 158 11 151 50 161 19 6 43 17 52 25 26 23 91 36 185 36 69 0 94
-4 108 -16 15 -15 18 -15 23 -2 4 9 0 32 -9 51 -22 54 -63 70 -173 70 -78 0
-96 -4 -122 -22 l-31 -22 0 41 c0 25 -4 39 -10 35 -14 -9 -12 1 5 36 9 16 13
34 10 39 -4 6 -74 10 -166 10 -114 0 -158 -3 -153 -11 5 -8 1 -8 -14 0 -31 17
-32 15 -32 -44z m585 -434 c0 -8 -8 -19 -17 -25 -22 -13 -44 5 -34 29 7 20 51
16 51 -4z"/>
<path d="M757 720 c3 -11 9 -22 13 -25 5 -3 6 4 3 15 -3 11 -9 22 -13 25 -5 3
-6 -4 -3 -15z"/>
<path d="M56 261 c-29 -32 -56 -126 -56 -195 l0 -64 65 -1 65 -1 0 76 c0 41 4
83 9 92 5 9 5 25 2 35 -9 25 -26 5 -35 -43 -15 -81 -20 -94 -36 -110 -17 -17
-18 -17 -23 2 -3 10 5 64 19 119 13 55 24 102 24 105 0 10 -18 2 -34 -15z"/>
</g>
</svg>
